<svg width="24" height="24" viewBox="0 0 24 24" fill="none" xmlns="http://www.w3.org/2000/svg">
<path d="M16.25 3.56V4.01584L16.7039 4.05787C17.9607 4.17424 18.8396 4.60009 19.4285 5.22534C20.0186 5.8518 20.3659 6.72969 20.4607 7.83991C20.4603 7.84 20.4601 7.84 20.46 7.84H20.46H3.54161C3.54098 7.83968 3.54018 7.83919 3.53936 7.83853C3.63436 6.72896 3.98156 5.85155 4.57144 5.22534C5.16041 4.60009 6.0393 4.17424 7.29608 4.05787L7.74999 4.01584V3.56V2C7.74999 1.86614 7.86613 1.75 7.99999 1.75C8.13384 1.75 8.24999 1.86614 8.24999 2V3.5V4H8.74999H15.25H15.75V3.5V2C15.75 1.86614 15.8661 1.75 16 1.75C16.1338 1.75 16.25 1.86614 16.25 2V3.56Z" fill="#8C8B98" stroke="#8C8B98"/>
<path d="M16.0097 20.8044L16.0098 20.8044L16.0056 20.7976C15.6837 20.2755 15.5 19.6563 15.5 19C15.5 17.0661 17.0661 15.5 19 15.5C20.9339 15.5 22.5 17.0661 22.5 19C22.5 19.6563 22.3163 20.2755 21.9944 20.7976L21.9944 20.7975L21.9903 20.8044C21.3871 21.8185 20.2773 22.5 19 22.5C17.7227 22.5 16.6129 21.8185 16.0097 20.8044ZM21.4095 18.9371L21.4096 18.9372L21.4175 18.9295C21.9045 18.4588 21.9502 17.6774 21.4755 17.1688C21.0103 16.6704 20.2148 16.6332 19.7098 17.1036C19.7095 17.1039 19.7092 17.1042 19.7088 17.1045L18.4635 18.2564L18.3236 18.1164C17.8383 17.6312 17.0417 17.6312 16.5564 18.1164C16.0712 18.6017 16.0712 19.3983 16.5564 19.8836L17.5464 20.8736C17.7952 21.1223 18.1145 21.24 18.43 21.24C18.7317 21.24 19.0442 21.1253 19.2798 20.9068C19.28 20.9066 19.2801 20.9065 19.2802 20.9064L21.4095 18.9371Z" fill="#8C8B98" stroke="#8C8B98"/>
<path d="M9.55387 18.573L9.56368 18.5637L9.57298 18.5539C9.83498 18.2773 10 17.8964 10 17.5C10 17.1036 9.83498 16.7227 9.57298 16.4461L9.57311 16.446L9.56355 16.4364C9.14377 16.0167 8.49075 15.8796 7.93094 16.117C7.73276 16.1948 7.58416 16.3026 7.45552 16.4184L7.44072 16.4317L7.42702 16.4461C7.16502 16.7227 7 17.1036 7 17.5C7 17.8964 7.16502 18.2773 7.42702 18.5539L7.43632 18.5637L7.44613 18.573C7.72269 18.835 8.10363 19 8.5 19C8.89637 19 9.27731 18.835 9.55387 18.573ZM9.52235 15.1004L9.54927 15.0789L9.57298 15.0539C9.83498 14.7773 10 14.3964 10 14C10 13.6036 9.83498 13.2227 9.57298 12.9461L9.54927 12.9211L9.52235 12.8996L9.44735 12.8396L9.37235 12.7796L9.3554 12.766L9.33735 12.754C9.25521 12.6992 9.1668 12.6525 9.07214 12.6176C8.98453 12.5768 8.89148 12.5462 8.79358 12.5288C8.29764 12.4273 7.78121 12.5917 7.43645 12.9364L7.43632 12.9363L7.42702 12.9461C7.16502 13.2227 7 13.6036 7 14C7 14.3964 7.16502 14.7773 7.42702 15.0539L7.43632 15.0637L7.44613 15.073C7.72269 15.335 8.10363 15.5 8.5 15.5C8.5967 15.5 8.69812 15.4854 8.7596 15.4766C8.76347 15.476 8.76717 15.4755 8.77071 15.475L8.77073 15.4751L8.7822 15.4732C8.88427 15.4562 8.98113 15.4247 9.07213 15.3824C9.16679 15.3475 9.25521 15.3008 9.33735 15.246L9.3554 15.234L9.37235 15.2204L9.44735 15.1604L9.52235 15.1004ZM13.0539 15.073L13.0637 15.0637L13.073 15.0539C13.335 14.7773 13.5 14.3964 13.5 14C13.5 13.6036 13.335 13.2227 13.073 12.9461L13.0731 12.946L13.0636 12.9364C12.4957 12.3686 11.5127 12.3753 10.9412 12.9318L10.934 12.9388L10.927 12.9461C10.665 13.2227 10.5 13.6036 10.5 14C10.5 14.3964 10.665 14.7773 10.927 15.0539L10.9363 15.0637L10.9461 15.073C11.2227 15.335 11.6036 15.5 12 15.5C12.3964 15.5 12.7773 15.335 13.0539 15.073ZM4 10.34H20C20.2679 10.34 20.5028 10.5613 20.51 10.8551V12.59C20.51 12.8836 20.2441 13.1171 19.9497 13.0763C19.6369 13.0211 19.3195 13 19.01 13C15.7039 13 13.01 15.6939 13.01 19C13.01 19.5494 13.2053 20.2568 13.4068 20.8414C13.5158 21.1659 13.2783 21.5 12.93 21.5H8C6.3453 21.5 5.24565 21.0297 4.5539 20.2848C3.85591 19.5331 3.5 18.4233 3.5 17V10.84C3.5 10.5661 3.72614 10.34 4 10.34Z" fill="#8C8B98" stroke="#8C8B98"/>
</svg>
