<svg width="16" height="16" viewBox="0 0 16 16" fill="none" xmlns="http://www.w3.org/2000/svg">
<path d="M10.6667 2.82919L11.1206 2.87121C11.9273 2.94592 12.4721 3.21676 12.831 3.59785C13.1609 3.94799 13.3743 4.43415 13.4551 5.06001H2.54488C2.62573 4.43415 2.83912 3.94799 3.16894 3.59785C3.52792 3.21676 4.07264 2.94592 4.87942 2.87121L5.33332 2.82919V2.83334H5.83332H10.1667H10.6667V2.82919Z" fill="white" stroke="white"/>
<path d="M10.8164 13.7844L10.8164 13.7844L10.8123 13.7776C10.6137 13.4555 10.5 13.0729 10.5 12.6667C10.5 11.4695 11.4695 10.5 12.6667 10.5C13.2761 10.5 13.8265 10.7512 14.2201 11.1558C13.8499 10.9356 13.36 10.9697 13.0265 11.2802L12.3132 11.94C11.9231 11.5713 11.3017 11.5779 10.9198 11.9598C10.5312 12.3484 10.5312 12.985 10.9198 13.3736L11.5798 14.0336C11.7785 14.2323 12.0345 14.3267 12.2867 14.3267C12.5283 14.3267 12.7775 14.2354 12.9664 14.0602C12.9666 14.06 12.9667 14.0599 12.9669 14.0597L14.3862 12.7471L14.3862 12.7472L14.3942 12.7395C14.6201 12.5211 14.7274 12.2173 14.7017 11.921C14.7869 12.1534 14.8333 12.4046 14.8333 12.6667C14.8333 13.0729 14.7197 13.4555 14.5211 13.7776L14.521 13.7775L14.5169 13.7844C14.1437 14.4118 13.4573 14.8333 12.6667 14.8333C11.8761 14.8333 11.1896 14.4118 10.8164 13.7844Z" fill="white" stroke="white"/>
<path d="M6.83333 9.33333C6.83333 9.02363 6.70498 8.72935 6.50298 8.51613L6.47927 8.4911L6.45235 8.46956L6.45215 8.46941L6.45196 8.46925L6.45176 8.46909L6.45157 8.46894L6.45137 8.46878L6.45118 8.46863L6.45098 8.46847L6.45079 8.46831L6.45059 8.46816L6.45039 8.468L6.4502 8.46784L6.45 8.46769L6.44981 8.46753L6.44961 8.46738L6.44942 8.46722L6.44922 8.46706L6.44903 8.46691L6.44883 8.46675L6.44864 8.46659L6.44844 8.46644L6.44825 8.46628L6.44805 8.46613L6.44786 8.46597L6.44766 8.46581L6.44746 8.46566L6.44727 8.4655L6.44707 8.46534L6.44688 8.46519L6.44668 8.46503L6.44649 8.46488L6.44629 8.46472L6.4461 8.46456L6.4459 8.46441L6.44571 8.46425L6.44551 8.46409L6.44532 8.46394L6.44512 8.46378L6.44493 8.46363L6.44473 8.46347L6.44454 8.46331L6.44434 8.46316L6.44414 8.463L6.44395 8.46284L6.44375 8.46269L6.44356 8.46253L6.44336 8.46238L6.44317 8.46222L6.44297 8.46206L6.44278 8.46191L6.44258 8.46175L6.44239 8.46159L6.44219 8.46144L6.442 8.46128L6.4418 8.46113L6.44161 8.46097L6.44141 8.46081L6.44122 8.46066L6.44102 8.4605L6.44082 8.46034L6.44063 8.46019L6.44043 8.46003L6.44024 8.45988L6.44004 8.45972L6.43985 8.45956L6.43965 8.45941L6.43946 8.45925L6.43926 8.45909L6.43907 8.45894L6.43887 8.45878L6.43868 8.45863L6.43848 8.45847L6.43829 8.45831L6.43809 8.45816L6.43789 8.458L6.4377 8.45784L6.4375 8.45769L6.43731 8.45753L6.43711 8.45738L6.43692 8.45722L6.43672 8.45706L6.43653 8.45691L6.43633 8.45675L6.43614 8.45659L6.43594 8.45644L6.43575 8.45628L6.43555 8.45613L6.43536 8.45597L6.43516 8.45581L6.43497 8.45566L6.43477 8.4555L6.43457 8.45534L6.43438 8.45519L6.43418 8.45503L6.43399 8.45488L6.43379 8.45472L6.4336 8.45456L6.4334 8.45441L6.43321 8.45425L6.43301 8.45409L6.43282 8.45394L6.43262 8.45378L6.43243 8.45363L6.43223 8.45347L6.43204 8.45331L6.43184 8.45316L6.43164 8.453L6.43145 8.45284L6.43125 8.45269L6.43106 8.45253L6.43086 8.45238L6.43067 8.45222L6.43047 8.45206L6.43028 8.45191L6.43008 8.45175L6.42989 8.45159L6.42969 8.45144L6.4295 8.45128L6.4293 8.45113L6.42911 8.45097L6.42891 8.45081L6.42872 8.45066L6.42852 8.4505L6.42832 8.45034L6.42813 8.45019L6.42793 8.45003L6.42774 8.44988L6.42754 8.44972L6.42735 8.44956L6.42715 8.44941L6.42696 8.44925L6.42676 8.44909L6.42657 8.44894L6.42637 8.44878L6.42618 8.44863L6.42598 8.44847L6.42579 8.44831L6.42559 8.44816L6.42539 8.448L6.4252 8.44784L6.425 8.44769L6.42481 8.44753L6.42461 8.44738L6.42442 8.44722L6.42422 8.44706L6.42403 8.44691L6.42383 8.44675L6.42364 8.44659L6.42344 8.44644L6.42325 8.44628L6.42305 8.44613L6.42286 8.44597L6.42266 8.44581L6.42246 8.44566L6.42227 8.4455L6.42207 8.44534L6.42188 8.44519L6.42168 8.44503L6.42149 8.44488L6.42129 8.44472L6.4211 8.44456L6.4209 8.44441L6.42071 8.44425L6.42051 8.44409L6.42032 8.44394L6.42012 8.44378L6.41993 8.44363L6.41973 8.44347L6.41954 8.44331L6.41934 8.44316L6.41914 8.443L6.41895 8.44284L6.41875 8.44269L6.41856 8.44253L6.41836 8.44238L6.41817 8.44222L6.41797 8.44206L6.41778 8.44191L6.41758 8.44175L6.41739 8.44159L6.41719 8.44144L6.417 8.44128L6.4168 8.44113L6.41661 8.44097L6.41641 8.44081L6.41621 8.44066L6.41602 8.4405L6.41582 8.44034L6.41563 8.44019L6.41543 8.44003L6.41524 8.43988L6.41504 8.43972L6.41485 8.43956L6.41465 8.43941L6.41446 8.43925L6.41426 8.43909L6.41407 8.43894L6.41387 8.43878L6.41368 8.43863L6.41348 8.43847L6.41329 8.43831L6.41309 8.43816L6.41289 8.438L6.4127 8.43784L6.4125 8.43769L6.41231 8.43753L6.41211 8.43738L6.41192 8.43722L6.41172 8.43706L6.41153 8.43691L6.41133 8.43675L6.41114 8.43659L6.41094 8.43644L6.41075 8.43628L6.41055 8.43613L6.41036 8.43597L6.41016 8.43581L6.40997 8.43566L6.40977 8.4355L6.40957 8.43534L6.40938 8.43519L6.40918 8.43503L6.40899 8.43488L6.40879 8.43472L6.4086 8.43456L6.4084 8.43441L6.40821 8.43425L6.40801 8.43409L6.40782 8.43394L6.40762 8.43378L6.40743 8.43363L6.40723 8.43347L6.40704 8.43331L6.40684 8.43316L6.40664 8.433L6.40645 8.43284L6.40625 8.43269L6.40606 8.43253L6.40586 8.43238L6.40567 8.43222L6.40547 8.43206L6.40528 8.43191L6.40508 8.43175L6.40489 8.43159L6.40469 8.43144L6.4045 8.43128L6.4043 8.43113L6.40411 8.43097L6.40391 8.43081L6.40372 8.43066L6.40352 8.4305L6.40332 8.43034L6.40313 8.43019L6.40293 8.43003L6.40274 8.42988L6.40254 8.42972L6.40235 8.42956L6.40215 8.42941L6.40196 8.42925L6.40176 8.42909L6.40157 8.42894L6.40137 8.42878L6.40118 8.42863L6.40098 8.42847L6.40079 8.42831L6.40059 8.42816L6.40039 8.428L6.4002 8.42784L6.4 8.42769L6.39981 8.42753L6.39961 8.42738L6.39942 8.42722L6.39922 8.42706L6.39903 8.42691L6.39883 8.42675L6.39864 8.42659L6.39844 8.42644L6.39825 8.42628L6.39805 8.42613L6.39786 8.42597L6.39766 8.42581L6.39747 8.42566L6.39727 8.4255L6.39707 8.42534L6.39688 8.42519L6.39668 8.42503L6.39649 8.42488L6.39629 8.42472L6.3961 8.42456L6.3959 8.42441L6.39571 8.42425L6.39551 8.42409L6.39532 8.42394L6.39512 8.42378L6.39493 8.42363L6.39473 8.42347L6.39454 8.42331L6.39434 8.42316L6.39415 8.423L6.39395 8.42284L6.39375 8.42269L6.39356 8.42253L6.39336 8.42238L6.39317 8.42222L6.39297 8.42206L6.39278 8.42191L6.39258 8.42175L6.39239 8.42159L6.39219 8.42144L6.392 8.42128L6.3918 8.42113L6.39161 8.42097L6.39141 8.42081L6.39122 8.42066L6.39102 8.4205L6.39082 8.42034L6.39063 8.42019L6.39043 8.42003L6.39024 8.41988L6.39004 8.41972L6.38985 8.41956L6.38965 8.41941L6.38946 8.41925L6.38926 8.41909L6.38907 8.41894L6.38887 8.41878L6.38868 8.41863L6.38848 8.41847L6.38829 8.41831L6.38809 8.41816L6.38789 8.418L6.3877 8.41784L6.3875 8.41769L6.38731 8.41753L6.38711 8.41738L6.38692 8.41722L6.38672 8.41706L6.38653 8.41691L6.38633 8.41675L6.38614 8.41659L6.38594 8.41644L6.38575 8.41628L6.38555 8.41613L6.38536 8.41597L6.38516 8.41581L6.38496 8.41566L6.38477 8.4155L6.38457 8.41534L6.38438 8.41519L6.38418 8.41503L6.38399 8.41488L6.38379 8.41472L6.3836 8.41456L6.3834 8.41441L6.38321 8.41425L6.38301 8.41409L6.38282 8.41394L6.38262 8.41378L6.38243 8.41363L6.38223 8.41347L6.38204 8.41331L6.38184 8.41316L6.38164 8.413L6.38145 8.41284L6.38125 8.41269L6.38106 8.41253L6.38086 8.41238L6.38067 8.41222L6.38047 8.41206L6.38028 8.41191L6.38008 8.41175L6.37989 8.41159L6.37969 8.41144L6.3795 8.41128L6.3793 8.41113L6.37911 8.41097L6.37891 8.41081L6.37872 8.41066L6.37852 8.4105L6.37832 8.41034L6.37813 8.41019L6.37793 8.41003L6.37774 8.40988L6.37754 8.40972L6.37735 8.40956L6.37715 8.40941L6.37696 8.40925L6.37676 8.40909L6.37657 8.40894L6.37637 8.40878L6.37618 8.40863L6.37598 8.40847L6.37579 8.40831L6.37559 8.40816L6.37539 8.408L6.3752 8.40784L6.375 8.40769L6.37481 8.40753L6.37461 8.40738L6.37442 8.40722L6.37422 8.40706L6.37403 8.40691L6.37383 8.40675L6.37364 8.40659L6.37344 8.40644L6.37325 8.40628L6.37305 8.40613L6.37286 8.40597L6.37266 8.40581L6.37247 8.40566L6.37227 8.4055L6.37207 8.40534L6.37188 8.40519L6.37168 8.40503L6.37149 8.40488L6.37129 8.40472L6.3711 8.40456L6.3709 8.40441L6.37071 8.40425L6.37051 8.40409L6.37032 8.40394L6.37012 8.40378L6.36993 8.40363L6.36973 8.40347L6.36954 8.40331L6.36934 8.40316L6.36914 8.403L6.36895 8.40284L6.36875 8.40269L6.36856 8.40253L6.36836 8.40238L6.36817 8.40222L6.36797 8.40206L6.36778 8.40191L6.36758 8.40175L6.36739 8.40159L6.36719 8.40144L6.367 8.40128L6.3668 8.40113L6.36661 8.40097L6.36641 8.40081L6.36622 8.40066L6.36602 8.4005L6.36582 8.40034L6.36563 8.40019L6.36543 8.40003L6.36524 8.39988L6.36504 8.39972L6.36485 8.39956L6.36465 8.39941L6.36446 8.39925L6.36426 8.39909L6.36407 8.39894L6.36387 8.39878L6.36368 8.39863L6.36348 8.39847L6.36329 8.39831L6.36309 8.39816L6.3629 8.398L6.3627 8.39784L6.3625 8.39769L6.36231 8.39753L6.36211 8.39738L6.36192 8.39722L6.36172 8.39706L6.36153 8.39691L6.36133 8.39675L6.36114 8.39659L6.36094 8.39644L6.36075 8.39628L6.36055 8.39613L6.36036 8.39597L6.36016 8.39581L6.35997 8.39566L6.35977 8.3955L6.35957 8.39534L6.35938 8.39519L6.35918 8.39503L6.35899 8.39488L6.35879 8.39472L6.3586 8.39456L6.3584 8.39441L6.35821 8.39425L6.35801 8.39409L6.35782 8.39394L6.35762 8.39378L6.35743 8.39363L6.35723 8.39347L6.35704 8.39331L6.35684 8.39316L6.35664 8.393L6.35645 8.39284L6.35625 8.39269L6.35606 8.39253L6.35586 8.39238L6.35567 8.39222L6.35547 8.39206L6.35528 8.39191L6.35508 8.39175L6.35489 8.39159L6.35469 8.39144L6.3545 8.39128L6.3543 8.39113L6.35411 8.39097L6.35391 8.39081L6.35371 8.39066L6.35352 8.3905L6.35332 8.39034L6.35313 8.39019L6.35293 8.39003L6.35274 8.38988L6.35254 8.38972L6.35235 8.38956L6.3354 8.37601L6.31735 8.36397C6.25488 8.32232 6.18648 8.28577 6.11218 8.25775C6.0442 8.2267 5.97121 8.20278 5.89372 8.1888C5.50777 8.11056 5.10791 8.23831 4.83978 8.50644L4.83965 8.50631L4.83036 8.51613C4.62835 8.72935 4.5 9.02363 4.5 9.33333C4.5 9.64303 4.62835 9.93731 4.83036 10.1505L4.83965 10.1603L4.84946 10.1696C5.06269 10.3716 5.35696 10.5 5.66667 10.5C5.74375 10.5 5.82258 10.4886 5.86252 10.4828C5.86547 10.4824 5.8682 10.482 5.87071 10.4816L5.87073 10.4818L5.8822 10.4799C5.96398 10.4662 6.04084 10.4415 6.11218 10.4089C6.18648 10.3809 6.25488 10.3443 6.31735 10.3027L6.3354 10.2907L6.35235 10.2771L6.35254 10.2769L6.35274 10.2768L6.35293 10.2766L6.35313 10.2765L6.35332 10.2763L6.35352 10.2762L6.35371 10.276L6.35391 10.2758L6.35411 10.2757L6.3543 10.2755L6.3545 10.2754L6.35469 10.2752L6.35489 10.2751L6.35508 10.2749L6.35528 10.2748L6.35547 10.2746L6.35567 10.2744L6.35586 10.2743L6.35606 10.2741L6.35625 10.274L6.35645 10.2738L6.35664 10.2737L6.35684 10.2735L6.35704 10.2733L6.35723 10.2732L6.35743 10.273L6.35762 10.2729L6.35782 10.2727L6.35801 10.2726L6.35821 10.2724L6.3584 10.2723L6.3586 10.2721L6.35879 10.2719L6.35899 10.2718L6.35918 10.2716L6.35938 10.2715L6.35957 10.2713L6.35977 10.2712L6.35997 10.271L6.36016 10.2708L6.36036 10.2707L6.36055 10.2705L6.36075 10.2704L6.36094 10.2702L6.36114 10.2701L6.36133 10.2699L6.36153 10.2698L6.36172 10.2696L6.36192 10.2694L6.36211 10.2693L6.36231 10.2691L6.3625 10.269L6.3627 10.2688L6.3629 10.2687L6.36309 10.2685L6.36329 10.2683L6.36348 10.2682L6.36368 10.268L6.36387 10.2679L6.36407 10.2677L6.36426 10.2676L6.36446 10.2674L6.36465 10.2673L6.36485 10.2671L6.36504 10.2669L6.36524 10.2668L6.36543 10.2666L6.36563 10.2665L6.36582 10.2663L6.36602 10.2662L6.36622 10.266L6.36641 10.2658L6.36661 10.2657L6.3668 10.2655L6.367 10.2654L6.36719 10.2652L6.36739 10.2651L6.36758 10.2649L6.36778 10.2648L6.36797 10.2646L6.36817 10.2644L6.36836 10.2643L6.36856 10.2641L6.36875 10.264L6.36895 10.2638L6.36914 10.2637L6.36934 10.2635L6.36954 10.2633L6.36973 10.2632L6.36993 10.263L6.37012 10.2629L6.37032 10.2627L6.37051 10.2626L6.37071 10.2624L6.3709 10.2623L6.3711 10.2621L6.37129 10.2619L6.37149 10.2618L6.37168 10.2616L6.37188 10.2615L6.37207 10.2613L6.37227 10.2612L6.37247 10.261L6.37266 10.2608L6.37286 10.2607L6.37305 10.2605L6.37325 10.2604L6.37344 10.2602L6.37364 10.2601L6.37383 10.2599L6.37403 10.2598L6.37422 10.2596L6.37442 10.2594L6.37461 10.2593L6.37481 10.2591L6.375 10.259L6.3752 10.2588L6.37539 10.2587L6.37559 10.2585L6.37579 10.2583L6.37598 10.2582L6.37618 10.258L6.37637 10.2579L6.37657 10.2577L6.37676 10.2576L6.37696 10.2574L6.37715 10.2573L6.37735 10.2571L6.37754 10.2569L6.37774 10.2568L6.37793 10.2566L6.37813 10.2565L6.37832 10.2563L6.37852 10.2562L6.37872 10.256L6.37891 10.2558L6.37911 10.2557L6.3793 10.2555L6.3795 10.2554L6.37969 10.2552L6.37989 10.2551L6.38008 10.2549L6.38028 10.2548L6.38047 10.2546L6.38067 10.2544L6.38086 10.2543L6.38106 10.2541L6.38125 10.254L6.38145 10.2538L6.38164 10.2537L6.38184 10.2535L6.38204 10.2533L6.38223 10.2532L6.38243 10.253L6.38262 10.2529L6.38282 10.2527L6.38301 10.2526L6.38321 10.2524L6.3834 10.2523L6.3836 10.2521L6.38379 10.2519L6.38399 10.2518L6.38418 10.2516L6.38438 10.2515L6.38457 10.2513L6.38477 10.2512L6.38496 10.251L6.38516 10.2508L6.38536 10.2507L6.38555 10.2505L6.38575 10.2504L6.38594 10.2502L6.38614 10.2501L6.38633 10.2499L6.38653 10.2498L6.38672 10.2496L6.38692 10.2494L6.38711 10.2493L6.38731 10.2491L6.3875 10.249L6.3877 10.2488L6.38789 10.2487L6.38809 10.2485L6.38829 10.2483L6.38848 10.2482L6.38868 10.248L6.38887 10.2479L6.38907 10.2477L6.38926 10.2476L6.38946 10.2474L6.38965 10.2473L6.38985 10.2471L6.39004 10.2469L6.39024 10.2468L6.39043 10.2466L6.39063 10.2465L6.39082 10.2463L6.39102 10.2462L6.39122 10.246L6.39141 10.2458L6.39161 10.2457L6.3918 10.2455L6.392 10.2454L6.39219 10.2452L6.39239 10.2451L6.39258 10.2449L6.39278 10.2448L6.39297 10.2446L6.39317 10.2444L6.39336 10.2443L6.39356 10.2441L6.39375 10.244L6.39395 10.2438L6.39415 10.2437L6.39434 10.2435L6.39454 10.2433L6.39473 10.2432L6.39493 10.243L6.39512 10.2429L6.39532 10.2427L6.39551 10.2426L6.39571 10.2424L6.3959 10.2423L6.3961 10.2421L6.39629 10.2419L6.39649 10.2418L6.39668 10.2416L6.39688 10.2415L6.39707 10.2413L6.39727 10.2412L6.39747 10.241L6.39766 10.2408L6.39786 10.2407L6.39805 10.2405L6.39825 10.2404L6.39844 10.2402L6.39864 10.2401L6.39883 10.2399L6.39903 10.2398L6.39922 10.2396L6.39942 10.2394L6.39961 10.2393L6.39981 10.2391L6.4 10.239L6.4002 10.2388L6.40039 10.2387L6.40059 10.2385L6.40079 10.2383L6.40098 10.2382L6.40118 10.238L6.40137 10.2379L6.40157 10.2377L6.40176 10.2376L6.40196 10.2374L6.40215 10.2373L6.40235 10.2371L6.40254 10.2369L6.40274 10.2368L6.40293 10.2366L6.40313 10.2365L6.40332 10.2363L6.40352 10.2362L6.40372 10.236L6.40391 10.2358L6.40411 10.2357L6.4043 10.2355L6.4045 10.2354L6.40469 10.2352L6.40489 10.2351L6.40508 10.2349L6.40528 10.2348L6.40547 10.2346L6.40567 10.2344L6.40586 10.2343L6.40606 10.2341L6.40625 10.234L6.40645 10.2338L6.40664 10.2337L6.40684 10.2335L6.40704 10.2333L6.40723 10.2332L6.40743 10.233L6.40762 10.2329L6.40782 10.2327L6.40801 10.2326L6.40821 10.2324L6.4084 10.2323L6.4086 10.2321L6.40879 10.2319L6.40899 10.2318L6.40918 10.2316L6.40938 10.2315L6.40957 10.2313L6.40977 10.2312L6.40997 10.231L6.41016 10.2308L6.41036 10.2307L6.41055 10.2305L6.41075 10.2304L6.41094 10.2302L6.41114 10.2301L6.41133 10.2299L6.41153 10.2298L6.41172 10.2296L6.41192 10.2294L6.41211 10.2293L6.41231 10.2291L6.4125 10.229L6.4127 10.2288L6.41289 10.2287L6.41309 10.2285L6.41329 10.2283L6.41348 10.2282L6.41368 10.228L6.41387 10.2279L6.41407 10.2277L6.41426 10.2276L6.41446 10.2274L6.41465 10.2273L6.41485 10.2271L6.41504 10.2269L6.41524 10.2268L6.41543 10.2266L6.41563 10.2265L6.41582 10.2263L6.41602 10.2262L6.41621 10.226L6.41641 10.2258L6.41661 10.2257L6.4168 10.2255L6.417 10.2254L6.41719 10.2252L6.41739 10.2251L6.41758 10.2249L6.41778 10.2248L6.41797 10.2246L6.41817 10.2244L6.41836 10.2243L6.41856 10.2241L6.41875 10.224L6.41895 10.2238L6.41914 10.2237L6.41934 10.2235L6.41954 10.2233L6.41973 10.2232L6.41993 10.223L6.42012 10.2229L6.42032 10.2227L6.42051 10.2226L6.42071 10.2224L6.4209 10.2223L6.4211 10.2221L6.42129 10.2219L6.42149 10.2218L6.42168 10.2216L6.42188 10.2215L6.42207 10.2213L6.42227 10.2212L6.42246 10.221L6.42266 10.2208L6.42286 10.2207L6.42305 10.2205L6.42325 10.2204L6.42344 10.2202L6.42364 10.2201L6.42383 10.2199L6.42403 10.2198L6.42422 10.2196L6.42442 10.2194L6.42461 10.2193L6.42481 10.2191L6.425 10.219L6.4252 10.2188L6.42539 10.2187L6.42559 10.2185L6.42579 10.2183L6.42598 10.2182L6.42618 10.218L6.42637 10.2179L6.42657 10.2177L6.42676 10.2176L6.42696 10.2174L6.42715 10.2173L6.42735 10.2171L6.42754 10.2169L6.42774 10.2168L6.42793 10.2166L6.42813 10.2165L6.42832 10.2163L6.42852 10.2162L6.42872 10.216L6.42891 10.2158L6.42911 10.2157L6.4293 10.2155L6.4295 10.2154L6.42969 10.2152L6.42989 10.2151L6.43008 10.2149L6.43028 10.2148L6.43047 10.2146L6.43067 10.2144L6.43086 10.2143L6.43106 10.2141L6.43125 10.214L6.43145 10.2138L6.43164 10.2137L6.43184 10.2135L6.43204 10.2133L6.43223 10.2132L6.43243 10.213L6.43262 10.2129L6.43282 10.2127L6.43301 10.2126L6.43321 10.2124L6.4334 10.2123L6.4336 10.2121L6.43379 10.2119L6.43399 10.2118L6.43418 10.2116L6.43438 10.2115L6.43457 10.2113L6.43477 10.2112L6.43497 10.211L6.43516 10.2108L6.43536 10.2107L6.43555 10.2105L6.43575 10.2104L6.43594 10.2102L6.43614 10.2101L6.43633 10.2099L6.43653 10.2098L6.43672 10.2096L6.43692 10.2094L6.43711 10.2093L6.43731 10.2091L6.4375 10.209L6.4377 10.2088L6.43789 10.2087L6.43809 10.2085L6.43829 10.2083L6.43848 10.2082L6.43868 10.208L6.43887 10.2079L6.43907 10.2077L6.43926 10.2076L6.43946 10.2074L6.43965 10.2073L6.43985 10.2071L6.44004 10.2069L6.44024 10.2068L6.44043 10.2066L6.44063 10.2065L6.44082 10.2063L6.44102 10.2062L6.44122 10.206L6.44141 10.2058L6.44161 10.2057L6.4418 10.2055L6.442 10.2054L6.44219 10.2052L6.44239 10.2051L6.44258 10.2049L6.44278 10.2048L6.44297 10.2046L6.44317 10.2044L6.44336 10.2043L6.44356 10.2041L6.44375 10.204L6.44395 10.2038L6.44414 10.2037L6.44434 10.2035L6.44454 10.2033L6.44473 10.2032L6.44493 10.203L6.44512 10.2029L6.44532 10.2027L6.44551 10.2026L6.44571 10.2024L6.4459 10.2023L6.4461 10.2021L6.44629 10.2019L6.44649 10.2018L6.44668 10.2016L6.44688 10.2015L6.44707 10.2013L6.44727 10.2012L6.44746 10.201L6.44766 10.2008L6.44786 10.2007L6.44805 10.2005L6.44825 10.2004L6.44844 10.2002L6.44864 10.2001L6.44883 10.1999L6.44903 10.1998L6.44922 10.1996L6.44942 10.1994L6.44961 10.1993L6.44981 10.1991L6.45 10.199L6.4502 10.1988L6.45039 10.1987L6.45059 10.1985L6.45079 10.1983L6.45098 10.1982L6.45118 10.198L6.45137 10.1979L6.45157 10.1977L6.45176 10.1976L6.45196 10.1974L6.45215 10.1973L6.45235 10.1971L6.47927 10.1756L6.50298 10.1505C6.70498 9.93731 6.83333 9.64303 6.83333 9.33333ZM6.83333 9.33333C6.83333 9.02363 6.96168 8.72935 7.16369 8.51613L7.17063 8.5088L7.17786 8.50176C7.62269 8.06864 8.3824 8.06195 8.82689 8.50644L8.83644 8.516L8.83631 8.51612C9.03832 8.72935 9.16667 9.02363 9.16667 9.33333C9.16667 9.64303 9.03832 9.93731 8.83631 10.1505L8.82702 10.1603L8.81721 10.1696C8.60398 10.3716 8.3097 10.5 8 10.5C7.6903 10.5 7.39602 10.3716 7.18279 10.1696L7.17298 10.1603L7.16369 10.1505C6.96168 9.93731 6.83333 9.64303 6.83333 9.33333ZM6.48387 12.503L6.49368 12.4937L6.50298 12.4839C6.70498 12.2706 6.83333 11.9764 6.83333 11.6667C6.83333 11.357 6.70498 11.0627 6.50298 10.8495L6.50311 10.8493L6.49355 10.8398C6.16711 10.5133 5.66075 10.4063 5.22432 10.5904C5.06949 10.6515 4.95428 10.7358 4.85885 10.8217L4.84405 10.835L4.83036 10.8495C4.62835 11.0627 4.5 11.357 4.5 11.6667C4.5 11.9764 4.62835 12.2706 4.83036 12.4839L4.83965 12.4937L4.84946 12.503C5.06269 12.705 5.35696 12.8333 5.66667 12.8333C5.97637 12.8333 6.27065 12.705 6.48387 12.503ZM2.66667 7.06H13.3333C13.4182 7.06 13.5031 7.13175 13.5067 7.2391V8.39333C13.5067 8.48737 13.42 8.56441 13.3251 8.55277C13.1061 8.51438 12.8858 8.5 12.6733 8.5C10.3772 8.5 8.50667 10.3705 8.50667 12.6667C8.50667 13.0626 8.64519 13.5566 8.78004 13.9479C8.81591 14.0558 8.73842 14.1667 8.62 14.1667H5.33333C4.26197 14.1667 3.57899 13.8631 3.15806 13.4098C2.73091 12.9498 2.5 12.2567 2.5 11.3333V7.22666C2.5 7.13614 2.57614 7.06 2.66667 7.06Z" fill="white" stroke="white"/>
</svg>
