<svg width="20" height="20" viewBox="0 0 20 20" fill="none" xmlns="http://www.w3.org/2000/svg">
<g clip-path="url(#clip0_110_578)">
<path d="M17.825 6.50696V6.50834V13.4917C17.825 14.9089 17.4045 15.9801 16.6881 16.6965C15.9718 17.4128 14.9006 17.8333 13.4834 17.8333H6.50835C5.09113 17.8333 4.02011 17.4128 3.30379 16.6956C2.58741 15.9784 2.16669 14.9051 2.16669 13.4833V6.50834C2.16669 5.09111 2.5872 4.01993 3.30357 3.30356C4.01995 2.58718 5.09112 2.16667 6.50835 2.16667H13.4917C14.909 2.16667 15.98 2.58723 16.6952 3.30334C17.4103 4.01934 17.8289 5.09005 17.825 6.50696ZM8.16212 15.6117L8.16212 15.6117L8.16586 15.6111C8.40173 15.5758 8.65209 15.4822 8.86932 15.3718C9.08669 15.2613 9.3093 15.1143 9.47798 14.9458C9.47818 14.9456 9.47837 14.9454 9.47857 14.9452L13.2107 11.2381L13.7869 10.6658L13.5618 10.5908C13.7405 10.5821 13.9217 10.5105 14.0619 10.3702L14.0638 10.3683L14.8286 9.59523C14.8289 9.59492 14.8292 9.59462 14.8295 9.59431C15.5111 8.9124 15.9141 8.19557 15.925 7.41528L15.925 7.41528V7.40834C15.925 6.59403 15.5231 5.86601 14.8369 5.17979C14.1658 4.50869 13.4345 4.09677 12.6369 4.09272C11.838 4.08866 11.0985 4.49438 10.4131 5.17979L9.64658 5.94634C9.48785 6.09367 9.41728 6.29179 9.41588 6.48191L9.33407 6.26718L8.78813 6.81312L5.07417 10.5271C4.89935 10.6971 4.75146 10.9191 4.64131 11.1369C4.53027 11.3565 4.44008 11.6066 4.40529 11.8443L4.40501 11.8462L4.11362 13.8943C4.02794 14.4659 4.1755 15.0326 4.5798 15.4369L4.93335 15.0833L4.5798 15.4369C4.9123 15.7694 5.36318 15.925 5.81669 15.925C5.91982 15.925 6.01859 15.914 6.08848 15.9062L6.0969 15.9053L6.10452 15.9044L6.11212 15.9034L8.16212 15.6117Z" fill="#2C29B0" stroke="#2C29B0"/>
</g>
<defs>
<clipPath id="clip0_110_578">
<rect width="20" height="20" fill="white"/>
</clipPath>
</defs>
</svg>
