<svg width="24" height="24" viewBox="0 0 24 24" fill="none" xmlns="http://www.w3.org/2000/svg">
<path d="M5.40853 12.4276L5.40856 12.4276L5.4115 12.4226C5.56166 12.1661 5.69076 11.8206 5.78205 11.489C5.87324 11.1578 5.93999 10.7922 5.93999 10.49V8.63C5.93999 5.27762 8.6648 2.55962 12.0207 2.55C15.3637 2.55037 18.09 5.27588 18.09 8.63V10.5C18.09 10.8024 18.1568 11.1683 18.2497 11.5008C18.3423 11.8325 18.4746 12.1799 18.6322 12.4389C18.6325 12.4394 18.6328 12.4398 18.6331 12.4403L19.7601 14.3154C19.7603 14.3157 19.7605 14.3161 19.7607 14.3164C20.0943 14.8784 20.1572 15.5395 19.932 16.1438C19.7044 16.7447 19.2269 17.2143 18.6009 17.426C17.5447 17.778 16.4614 18.051 15.3707 18.2263L15.3706 18.2262L15.3605 18.2281C15.2467 18.2488 15.1587 18.2644 15.0747 18.2721L15.0562 18.2737L15.0378 18.2768C14.8734 18.3042 14.707 18.3228 14.5248 18.3431L14.5248 18.3429L14.5124 18.3446C14.3067 18.3726 14.0891 18.3917 13.8567 18.4119L13.8567 18.4119L13.8518 18.4123C13.2481 18.4707 12.6342 18.5 12.02 18.5C11.3955 18.5 10.7713 18.4707 10.1574 18.4123L10.1574 18.4121L10.1469 18.4114C9.89034 18.3924 9.64338 18.3639 9.39602 18.3258L9.39603 18.3257L9.38607 18.3244C9.23877 18.3047 9.09425 18.2855 8.95948 18.2663C8.897 18.2552 8.83649 18.2469 8.78663 18.2401L8.78255 18.2396C8.72577 18.2318 8.68173 18.2258 8.63943 18.2181L8.63944 18.218L8.63435 18.2172C7.5456 18.0308 6.48065 17.7765 5.42811 17.4256L5.42453 17.4245C4.76183 17.2091 4.27295 16.7352 4.05895 16.1565L4.05815 16.1544C3.84855 15.5955 3.91633 14.9236 4.27973 14.3056L5.40853 12.4276ZM11.99 11.26C12.6861 11.26 13.25 10.6961 13.25 10V6.9C13.25 6.20386 12.6861 5.64 11.99 5.64C11.2938 5.64 10.73 6.20386 10.73 6.9V10C10.73 10.6961 11.2938 11.26 11.99 11.26Z" fill="#8C8B98" stroke="#8C8B98"/>
<path d="M10.0956 20.6143C10.146 20.6193 10.1966 20.6239 10.2474 20.6282C10.8289 20.6792 11.4233 20.71 12.02 20.71C12.6073 20.71 13.1924 20.6791 13.7645 20.628L13.7645 20.628L13.7674 20.6277C13.8104 20.6237 13.858 20.6197 13.9086 20.6156C13.4474 21.1572 12.7621 21.5 12 21.5C11.3411 21.5 10.6924 21.2319 10.2398 20.7628L10.2311 20.7538L10.222 20.7452C10.1782 20.7042 10.136 20.6604 10.0956 20.6143Z" fill="#8C8B98" stroke="#8C8B98"/>
</svg>
